<?xml version="1.0" encoding="UTF-8" standalone="no"?>
<!-- Generator: Adobe Illustrator 27.5.0, SVG Export Plug-In . SVG Version: 6.00 Build 0)  -->

<svg
   version="1.1"
   x="0px"
   y="0px"
   viewBox="0 0 95626.602 106730.88"
   xml:space="preserve"
   id="svg35"
   width="95626.602"
   height="106730.88"
   xmlns:xlink="http://www.w3.org/1999/xlink"
   xmlns="http://www.w3.org/2000/svg"
   xmlns:svg="http://www.w3.org/2000/svg"><defs
   id="defs35" />

<g
   id="OBJECTS"
   transform="translate(-77186.445,-61763.887)">
	<g
   id="g35">
		<g
   id="g34">
			<rect
   style="fill:#ffffff;fill-rule:evenodd;stroke:none;stroke-width:1.88525;stroke-linecap:square;stroke-linejoin:round;paint-order:fill markers stroke"
   id="rect35"
   width="191.2532"
   height="213.46176"
   x="154.37289"
   y="123.52777" /><g
   id="g28">
				<defs
   id="defs1"><path
     id="SVGID_1_"
     d="m 309.365,297.988 h -118.73 c -12.288,0 -22.25,-9.962 -22.25,-22.25 V 157.009 c 0,-12.288 9.962,-22.25 22.25,-22.25 h 118.729 c 12.288,0 22.25,9.962 22.25,22.25 v 118.729 c 0.001,12.289 -9.961,22.25 -22.249,22.25 z" /></defs>
				<clipPath
   id="SVGID_00000161589511165819693610000018138227179845365918_">
					<use
   xlink:href="#SVGID_1_"
   style="overflow:visible"
   id="use1" />
				</clipPath>
				<path
   style="fill:#cfe5fa"
   d="m 309.365,297.988 h -118.73 c -12.288,0 -22.25,-9.962 -22.25,-22.25 V 157.009 c 0,-12.288 9.962,-22.25 22.25,-22.25 h 118.729 c 12.288,0 22.25,9.962 22.25,22.25 v 118.729 c 0.001,12.289 -9.961,22.25 -22.249,22.25 z"
   clip-path="url(#SVGID_00000161589511165819693610000018138227179845365918_)"
   id="path1" />
				<path
   style="fill:#008080"
   d="m 303.57,134.759 h -99.333 c -4.413,11.337 -6.861,23.656 -6.861,36.553 0,55.691 45.146,100.837 100.837,100.837 11.711,0 22.946,-2.018 33.402,-5.689 V 162.804 c 0,-15.489 -12.556,-28.045 -28.045,-28.045 z"
   clip-path="url(#SVGID_00000161589511165819693610000018138227179845365918_)"
   id="path2" />
				<path
   style="opacity:0.4;fill:#1a1a1a"
   d="m 278.703,240.513 c 0.167,-13.89 -2.508,-16.285 -11.189,-16.839 -4.242,-0.272 -7.161,0.376 -9.011,1.074 0.322,-2.8 0.449,-7.073 -1.316,-9.314 -0.775,-0.983 -1.85,-1.524 -3.111,-1.563 -5.689,-0.173 -10.201,0.897 -14.979,2.034 -4.905,1.168 -9.978,2.376 -16.915,2.376 -6.938,0 -12.01,-1.207 -16.916,-2.376 -4.778,-1.138 -9.289,-2.207 -14.979,-2.034 -1.261,0.04 -2.336,0.58 -3.111,1.563 -1.764,2.24 -1.638,6.513 -1.316,9.313 -1.85,-0.698 -4.768,-1.345 -9.011,-1.073 -8.68,0.554 -11.355,2.949 -11.188,16.839 0.119,9.847 0.065,20.18 0.027,27.725 -0.014,2.789 -0.027,5.15 -0.027,6.89 0,2.654 0.063,4.826 0.654,6.458 v 4.242 c 0,1.666 1.356,3.022 3.022,3.022 h 105.69 c 1.666,0 3.022,-1.356 3.022,-3.022 v -4.242 c 0.591,-1.632 0.653,-3.804 0.653,-6.458 0,-1.74 -0.012,-4.101 -0.027,-6.89 -0.038,-7.545 -0.091,-17.878 0.028,-27.725 z"
   clip-path="url(#SVGID_00000161589511165819693610000018138227179845365918_)"
   id="path3" />
				<path
   style="fill:#a4c5e0"
   d="m 174.895,287.905 c 5.145,6.161 12.881,10.084 21.535,10.084 h 107.14 c 8.654,0 16.391,-3.922 21.535,-10.084 z"
   clip-path="url(#SVGID_00000161589511165819693610000018138227179845365918_)"
   id="path4" />
				<path
   style="opacity:0.4;fill:#1a1a1a"
   d="m 232.749,149.411 h -68.756 c -4.41,0 -7.999,3.589 -7.999,7.999 v 37.782 c 0,4.41 3.589,7.999 7.999,7.999 h 68.756 c 4.41,0 7.999,-3.589 7.999,-7.999 V 157.41 c 0,-4.41 -3.588,-7.999 -7.999,-7.999 z"
   clip-path="url(#SVGID_00000161589511165819693610000018138227179845365918_)"
   id="path5" />
				<path
   style="opacity:0.4;fill:#1a1a1a"
   d="m 317.022,184.454 c 0,-10.545 -7.329,-19.77 -17.523,-22.186 -0.721,-1.767 -2.281,-3.04 -4.123,-3.425 v -26.605 h -2.309 v 26.605 c -1.843,0.385 -3.403,1.658 -4.123,3.425 -10.193,2.417 -17.523,11.642 -17.523,22.186 v 1.154 h 17.442 c 0.663,1.943 2.485,3.35 4.653,3.35 2.168,0 3.989,-1.407 4.653,-3.35 h 18.854 v -1.154 z"
   clip-path="url(#SVGID_00000161589511165819693610000018138227179845365918_)"
   id="path6" />
				<g
   clip-path="url(#SVGID_00000161589511165819693610000018138227179845365918_)"
   id="g15">
					<path
   style="fill:#f7941d"
   d="m 261.92,221.003 c -4.495,-0.29 -7.531,0.441 -9.284,1.102 l -0.525,0.198 0.064,-0.557 c 0.294,-2.553 0.515,-7.181 -1.305,-9.493 -0.746,-0.947 -1.783,-1.467 -2.997,-1.505 -5.924,-0.183 -10.613,0.937 -15.582,2.119 -5.149,1.226 -10.474,2.495 -17.777,2.495 -7.302,0 -12.628,-1.268 -17.777,-2.495 -4.964,-1.182 -9.648,-2.305 -15.582,-2.119 -1.214,0.038 -2.25,0.559 -2.996,1.505 -1.821,2.311 -1.599,6.94 -1.305,9.493 l 0.064,0.557 -0.525,-0.198 c -1.483,-0.559 -3.882,-1.166 -7.307,-1.166 -0.625,0 -1.283,0.021 -1.978,0.065 -8.975,0.573 -11.558,2.909 -11.385,17.272 0.124,10.307 0.068,21.118 0.028,29.012 -0.015,2.917 -0.028,5.387 -0.028,7.207 0,2.63 0.05,4.946 0.663,6.64 l 0.02,0.116 v 4.438 c 0,1.555 1.265,2.82 2.82,2.82 h 110.575 c 1.555,0 2.82,-1.265 2.82,-2.82 l 0.021,-4.554 c 0.613,-1.694 0.663,-4.009 0.663,-6.64 0,-1.82 -0.013,-4.289 -0.028,-7.207 -0.041,-7.886 -0.096,-18.686 0.028,-29.012 0.174,-14.364 -2.41,-16.7 -11.385,-17.273 z"
   id="path7" />
					<path
   style="fill:#f7941d"
   d="M 156.407,281.25"
   id="path8" />
					<path
   style="fill:#cc720e"
   d="m 261.92,221.003 c -4.495,-0.29 -7.531,0.441 -9.284,1.102 l -0.525,0.198 0.064,-0.557 c 0.294,-2.553 0.515,-7.181 -1.305,-9.493 -0.746,-0.947 -1.783,-1.467 -2.997,-1.505 -5.924,-0.183 -10.613,0.937 -15.582,2.119 -5.149,1.226 -10.474,2.495 -17.777,2.495 -7.302,0 -12.628,-1.268 -17.777,-2.495 -3.82,-0.91 -7.48,-1.778 -11.665,-2.048 5.709,3.975 17.185,10.548 30.126,10.068 18.458,-0.684 18.913,8.659 18.913,14.812 0,6.152 0,8.431 0,8.431 0,0 -23.47,-4.864 -50.018,6.227 0,0 27.06,-4.917 42.526,-2.353 15.467,2.563 19.739,4.187 19.739,4.187 0,0 -0.342,-16.407 0.171,-21.363 0.228,-2.208 2.085,-4.228 4.074,-5.791 2.523,-0.483 10.396,-1.085 10.396,10.206 0,11.208 0,42.996 0,53.265 h 8.802 c 1.555,0 2.82,-1.265 2.82,-2.82 l 0.021,-4.554 c 0.613,-1.694 0.663,-4.009 0.663,-6.64 0,-1.82 -0.013,-4.289 -0.028,-7.207 -0.041,-7.886 -0.096,-18.686 0.028,-29.012 0.174,-14.363 -2.41,-16.699 -11.385,-17.272 z"
   id="path9" />
					<path
   style="fill:#cc720e"
   d="m 184.663,256.891 c 0,0 2.572,-4.557 21.363,-6.324 18.791,-1.766 33.668,2.393 43.239,4.785 l -2.735,-3.76 c 0,0 -20.054,-6.11 -37.941,-4.615 -17.887,1.496 -26.319,5.469 -26.319,5.469 l -5.64,6.323 z"
   id="path10" />
					<path
   style="fill:#cc720e"
   d="m 175.605,266.632 c 0,0 17.603,-3.418 38.966,-3.418 21.363,0 21.534,11.963 21.534,11.963 l -59.816,2.905 0.342,4.614 76.394,-0.171 0.855,-22.388 c 0,0 -17.261,-4.614 -41.359,-4.614 -24.098,0 -37.086,5.469 -37.086,5.469 z"
   id="path11" />
					<path
   style="fill:#cc720e"
   d="m 156.806,282.697 16.236,1.196 5.298,-1.196 h 73.318 l 4.273,1.709 15.723,-2.051 v 4.102 c 0,0 -0.513,0.855 -6.323,0.855 -5.811,0 -107.157,0 -107.157,0 l -0.684,-1.196 z"
   id="path12" />
					<path
   style="fill:#cc720e"
   d="m 166.775,283.493 8.753,-0.42 0.63,-5.672 -0.63,-17.436 4.202,-6.092 2.541,-1.425 v -21.264 l -2.331,-6.092 -9.453,-3.151 h -7.983 l -2.731,2.311 c 0,0 8.823,-1.05 8.823,5.882 0,6.932 0,52.29 0,52.29 z"
   id="path13" />
					<path
   style="fill:#f7941d"
   d="M 160.623,222.293"
   id="path14" />
					<path
   style="fill:#1a1a1a"
   d="m 261.942,220.662 c -4.438,-0.284 -7.492,0.393 -9.427,1.124 0.337,-2.929 0.47,-7.4 -1.376,-9.744 -0.811,-1.029 -1.935,-1.594 -3.255,-1.636 -5.952,-0.182 -10.673,0.939 -15.672,2.128 -5.132,1.222 -10.439,2.485 -17.697,2.485 -7.259,0 -12.565,-1.263 -17.698,-2.485 -4.999,-1.19 -9.718,-2.309 -15.671,-2.128 -1.319,0.041 -2.444,0.607 -3.255,1.636 -1.846,2.344 -1.714,6.814 -1.376,9.743 -1.935,-0.73 -4.988,-1.407 -9.428,-1.123 -9.081,0.579 -11.88,3.085 -11.705,17.617 0.124,10.302 0.068,21.113 0.028,29.006 -0.015,2.918 -0.028,5.388 -0.028,7.209 0,2.777 0.066,5.049 0.684,6.756 v 4.438 c 0,1.743 1.418,3.162 3.162,3.162 h 110.575 c 1.743,0 3.162,-1.419 3.162,-3.162 v -4.438 c 0.618,-1.708 0.684,-3.979 0.684,-6.756 0,-1.821 -0.013,-4.291 -0.028,-7.209 -0.041,-7.894 -0.096,-18.704 0.028,-29.006 0.173,-14.532 -2.626,-17.038 -11.707,-17.617 z m -81.902,-6.93 c 0.31,-0.395 0.678,-0.577 1.191,-0.594 5.586,-0.176 10.136,0.909 14.953,2.056 5.285,1.258 10.752,2.56 18.331,2.56 7.579,0 13.045,-1.301 18.331,-2.56 4.817,-1.146 9.363,-2.232 14.953,-2.056 0.513,0.016 0.88,0.199 1.191,0.594 1.386,1.758 1.076,6.684 0.518,9.727 -1.305,1.033 -4.572,4.249 -4.572,10.53 v 16.367 c -0.392,-0.128 -0.843,-0.272 -1.346,-0.427 -0.052,-0.016 -0.103,-0.032 -0.156,-0.048 -0.134,-0.041 -0.273,-0.083 -0.414,-0.125 -0.074,-0.022 -0.149,-0.045 -0.225,-0.067 -0.143,-0.043 -0.287,-0.085 -0.437,-0.129 -0.078,-0.023 -0.159,-0.046 -0.238,-0.069 -0.328,-0.095 -0.67,-0.192 -1.028,-0.292 -0.041,-0.011 -0.08,-0.022 -0.121,-0.034 -0.143,-0.039 -0.291,-0.079 -0.438,-0.119 -0.127,-0.035 -0.254,-0.069 -0.384,-0.104 -0.145,-0.039 -0.293,-0.078 -0.442,-0.117 -0.142,-0.037 -0.286,-0.075 -0.431,-0.112 -0.149,-0.038 -0.299,-0.077 -0.452,-0.116 -0.163,-0.041 -0.33,-0.083 -0.497,-0.124 -0.142,-0.035 -0.281,-0.07 -0.426,-0.105 -0.297,-0.072 -0.601,-0.145 -0.91,-0.217 -0.127,-0.03 -0.258,-0.059 -0.388,-0.089 -0.208,-0.048 -0.416,-0.095 -0.629,-0.143 -0.148,-0.033 -0.299,-0.066 -0.45,-0.099 -0.205,-0.045 -0.411,-0.09 -0.62,-0.134 -0.152,-0.033 -0.305,-0.065 -0.459,-0.097 -0.231,-0.048 -0.465,-0.096 -0.701,-0.143 -0.136,-0.027 -0.271,-0.055 -0.409,-0.083 -0.363,-0.072 -0.731,-0.143 -1.105,-0.213 -0.109,-0.02 -0.221,-0.04 -0.331,-0.06 -0.281,-0.052 -0.564,-0.103 -0.851,-0.153 -0.151,-0.026 -0.304,-0.052 -0.456,-0.078 -0.256,-0.044 -0.514,-0.087 -0.775,-0.129 -0.159,-0.026 -0.318,-0.052 -0.478,-0.077 -0.279,-0.044 -0.561,-0.087 -0.844,-0.13 -0.139,-0.021 -0.277,-0.042 -0.417,-0.063 -0.417,-0.061 -0.839,-0.12 -1.265,-0.177 -0.085,-0.011 -0.171,-0.022 -0.257,-0.033 -0.351,-0.046 -0.705,-0.09 -1.062,-0.133 -0.151,-0.018 -0.304,-0.035 -0.456,-0.053 -0.299,-0.035 -0.6,-0.068 -0.904,-0.1 -0.164,-0.017 -0.328,-0.035 -0.493,-0.051 -0.314,-0.032 -0.631,-0.062 -0.949,-0.09 -0.146,-0.013 -0.291,-0.027 -0.438,-0.04 -0.461,-0.04 -0.924,-0.077 -1.393,-0.111 -0.043,-0.003 -0.086,-0.005 -0.129,-0.008 -0.426,-0.03 -0.855,-0.057 -1.287,-0.081 -0.154,-0.009 -0.31,-0.016 -0.465,-0.024 -0.33,-0.017 -0.661,-0.032 -0.993,-0.045 -0.17,-0.007 -0.34,-0.013 -0.511,-0.019 -0.34,-0.012 -0.681,-0.021 -1.024,-0.029 -0.152,-0.003 -0.303,-0.008 -0.456,-0.01 -0.492,-0.009 -0.986,-0.014 -1.483,-0.014 -0.497,0 -0.991,0.005 -1.483,0.014 -0.153,0.003 -0.304,0.007 -0.456,0.01 -0.343,0.008 -0.684,0.017 -1.024,0.029 -0.171,0.006 -0.341,0.012 -0.511,0.019 -0.333,0.013 -0.663,0.029 -0.993,0.045 -0.155,0.008 -0.311,0.015 -0.465,0.024 -0.432,0.024 -0.861,0.051 -1.287,0.081 -0.043,0.003 -0.086,0.005 -0.129,0.008 -0.468,0.033 -0.932,0.071 -1.393,0.111 -0.147,0.013 -0.292,0.027 -0.438,0.04 -0.318,0.029 -0.635,0.059 -0.949,0.09 -0.165,0.017 -0.329,0.034 -0.493,0.051 -0.303,0.032 -0.604,0.065 -0.903,0.1 -0.152,0.018 -0.305,0.035 -0.456,0.053 -0.358,0.043 -0.712,0.088 -1.064,0.133 -0.084,0.011 -0.17,0.021 -0.254,0.033 -0.427,0.057 -0.848,0.116 -1.266,0.177 -0.14,0.02 -0.278,0.042 -0.417,0.063 -0.283,0.042 -0.565,0.085 -0.844,0.13 -0.16,0.025 -0.319,0.051 -0.478,0.077 -0.26,0.043 -0.518,0.086 -0.775,0.129 -0.153,0.026 -0.305,0.052 -0.456,0.078 -0.287,0.05 -0.57,0.102 -0.851,0.153 -0.11,0.02 -0.222,0.04 -0.331,0.06 -0.374,0.07 -0.742,0.141 -1.105,0.213 -0.138,0.027 -0.273,0.055 -0.409,0.083 -0.236,0.048 -0.47,0.095 -0.701,0.143 -0.155,0.032 -0.307,0.065 -0.459,0.097 -0.209,0.045 -0.416,0.089 -0.62,0.134 -0.151,0.033 -0.301,0.066 -0.45,0.099 -0.213,0.048 -0.421,0.095 -0.629,0.143 -0.129,0.03 -0.261,0.059 -0.388,0.089 -0.309,0.072 -0.613,0.145 -0.91,0.217 -0.145,0.035 -0.284,0.07 -0.426,0.105 -0.167,0.041 -0.334,0.083 -0.497,0.124 -0.153,0.039 -0.303,0.077 -0.452,0.116 -0.146,0.038 -0.289,0.075 -0.431,0.112 -0.149,0.039 -0.297,0.078 -0.442,0.117 -0.131,0.035 -0.257,0.069 -0.385,0.104 -0.147,0.04 -0.295,0.08 -0.438,0.119 -0.041,0.011 -0.08,0.023 -0.121,0.034 -0.358,0.1 -0.7,0.197 -1.028,0.292 -0.079,0.023 -0.16,0.046 -0.238,0.069 -0.15,0.044 -0.294,0.086 -0.437,0.129 -0.076,0.023 -0.151,0.045 -0.225,0.067 -0.141,0.042 -0.279,0.084 -0.413,0.125 -0.054,0.017 -0.106,0.033 -0.16,0.049 -0.502,0.155 -0.952,0.298 -1.343,0.426 V 233.99 c 0,-6.281 -3.266,-9.497 -4.572,-10.53 -0.554,-3.044 -0.864,-7.969 0.522,-9.728 z m 34.475,40.424 c -17.9,0 -30.504,2.385 -36.046,3.686 0.016,-0.02 0.031,-0.04 0.047,-0.059 0.069,-0.083 0.142,-0.165 0.213,-0.248 0.074,-0.086 0.147,-0.172 0.224,-0.256 0.075,-0.083 0.153,-0.164 0.23,-0.247 0.077,-0.082 0.154,-0.165 0.233,-0.247 0.08,-0.082 0.162,-0.162 0.244,-0.243 0.08,-0.079 0.159,-0.158 0.239,-0.236 0.083,-0.08 0.167,-0.158 0.251,-0.236 0.081,-0.075 0.161,-0.151 0.242,-0.225 0.085,-0.077 0.169,-0.151 0.254,-0.226 0.08,-0.071 0.161,-0.143 0.241,-0.212 0.083,-0.072 0.165,-0.141 0.248,-0.211 0.081,-0.068 0.162,-0.137 0.243,-0.204 0.078,-0.064 0.155,-0.126 0.231,-0.188 0.082,-0.066 0.164,-0.133 0.244,-0.196 0.072,-0.057 0.141,-0.111 0.211,-0.165 0.081,-0.063 0.163,-0.126 0.241,-0.186 0.064,-0.049 0.126,-0.095 0.188,-0.141 0.077,-0.058 0.154,-0.115 0.228,-0.169 0.058,-0.042 0.113,-0.082 0.168,-0.121 0.072,-0.052 0.143,-0.102 0.21,-0.149 0.047,-0.033 0.092,-0.064 0.136,-0.094 0.041,-0.028 0.079,-0.054 0.118,-0.08 0.006,-0.002 0.009,-0.003 0.016,-0.006 0.025,-0.009 0.059,-0.021 0.09,-0.032 0.032,-0.011 0.066,-0.023 0.104,-0.037 0.038,-0.013 0.082,-0.029 0.126,-0.044 0.047,-0.016 0.096,-0.034 0.15,-0.052 0.046,-0.016 0.097,-0.033 0.148,-0.051 0.062,-0.021 0.128,-0.043 0.197,-0.067 0.057,-0.019 0.116,-0.039 0.177,-0.059 0.075,-0.025 0.155,-0.052 0.238,-0.079 0.066,-0.022 0.134,-0.044 0.204,-0.067 0.089,-0.029 0.184,-0.06 0.28,-0.09 0.076,-0.024 0.152,-0.049 0.232,-0.074 0.1,-0.032 0.206,-0.065 0.312,-0.098 0.087,-0.027 0.174,-0.055 0.265,-0.083 0.111,-0.034 0.228,-0.07 0.345,-0.106 0.096,-0.029 0.192,-0.059 0.292,-0.089 0.126,-0.038 0.26,-0.078 0.393,-0.117 0.1,-0.029 0.198,-0.059 0.301,-0.089 0.144,-0.042 0.296,-0.086 0.447,-0.129 0.103,-0.03 0.203,-0.059 0.309,-0.089 0.164,-0.046 0.335,-0.094 0.506,-0.142 0.103,-0.029 0.202,-0.057 0.307,-0.086 0.191,-0.053 0.392,-0.106 0.591,-0.16 0.093,-0.025 0.181,-0.049 0.276,-0.074 0.287,-0.076 0.583,-0.153 0.887,-0.231 0.011,-0.003 0.022,-0.006 0.033,-0.008 0.317,-0.081 0.642,-0.162 0.975,-0.244 0.082,-0.02 0.168,-0.04 0.251,-0.06 0.252,-0.061 0.505,-0.122 0.765,-0.183 0.127,-0.03 0.258,-0.059 0.387,-0.089 0.223,-0.051 0.445,-0.103 0.674,-0.154 0.147,-0.033 0.299,-0.066 0.449,-0.099 0.219,-0.048 0.438,-0.096 0.663,-0.144 0.158,-0.034 0.32,-0.067 0.481,-0.1 0.221,-0.046 0.442,-0.092 0.667,-0.137 0.172,-0.035 0.348,-0.069 0.523,-0.104 0.221,-0.043 0.442,-0.087 0.667,-0.13 0.181,-0.034 0.365,-0.068 0.549,-0.102 0.226,-0.042 0.453,-0.083 0.683,-0.124 0.188,-0.033 0.378,-0.066 0.569,-0.099 0.231,-0.04 0.462,-0.079 0.697,-0.118 0.196,-0.032 0.393,-0.064 0.591,-0.096 0.235,-0.038 0.472,-0.074 0.71,-0.111 0.202,-0.031 0.405,-0.061 0.609,-0.091 0.24,-0.035 0.481,-0.069 0.724,-0.103 0.207,-0.029 0.416,-0.057 0.625,-0.085 0.247,-0.033 0.496,-0.064 0.746,-0.095 0.209,-0.026 0.419,-0.052 0.63,-0.077 0.255,-0.03 0.512,-0.058 0.77,-0.087 0.212,-0.023 0.424,-0.046 0.638,-0.068 0.259,-0.027 0.521,-0.051 0.782,-0.076 0.216,-0.02 0.432,-0.041 0.65,-0.06 0.267,-0.023 0.537,-0.044 0.807,-0.066 0.215,-0.017 0.43,-0.035 0.647,-0.05 0.278,-0.02 0.559,-0.037 0.839,-0.054 0.212,-0.013 0.423,-0.027 0.636,-0.039 0.296,-0.016 0.594,-0.029 0.892,-0.042 0.201,-0.009 0.401,-0.019 0.603,-0.027 0.329,-0.012 0.662,-0.02 0.994,-0.029 0.173,-0.004 0.345,-0.011 0.519,-0.014 0.506,-0.01 1.015,-0.015 1.526,-0.015 0.511,0 1.02,0.005 1.526,0.015 0.174,0.003 0.346,0.01 0.519,0.014 0.332,0.008 0.664,0.016 0.994,0.029 0.202,0.007 0.402,0.018 0.603,0.027 0.298,0.013 0.596,0.026 0.892,0.042 0.213,0.012 0.424,0.026 0.636,0.039 0.28,0.017 0.561,0.034 0.84,0.054 0.217,0.015 0.431,0.033 0.646,0.05 0.27,0.021 0.54,0.042 0.807,0.066 0.218,0.019 0.434,0.04 0.65,0.06 0.262,0.025 0.523,0.049 0.782,0.076 0.214,0.022 0.426,0.045 0.638,0.068 0.257,0.028 0.515,0.057 0.77,0.087 0.211,0.025 0.42,0.05 0.629,0.076 0.25,0.031 0.499,0.063 0.747,0.095 0.209,0.028 0.417,0.056 0.624,0.085 0.243,0.034 0.485,0.068 0.725,0.103 0.204,0.03 0.407,0.06 0.609,0.091 0.238,0.036 0.475,0.073 0.71,0.111 0.198,0.032 0.396,0.063 0.592,0.096 0.234,0.039 0.466,0.078 0.697,0.118 0.19,0.033 0.381,0.066 0.569,0.099 0.23,0.041 0.457,0.083 0.683,0.124 0.184,0.034 0.367,0.068 0.548,0.102 0.225,0.043 0.446,0.086 0.667,0.13 0.175,0.034 0.351,0.069 0.523,0.104 0.225,0.045 0.446,0.091 0.667,0.137 0.161,0.034 0.323,0.067 0.481,0.1 0.225,0.048 0.443,0.096 0.663,0.144 0.15,0.033 0.302,0.066 0.449,0.099 0.229,0.051 0.451,0.103 0.674,0.154 0.129,0.03 0.26,0.059 0.387,0.089 0.26,0.061 0.513,0.122 0.765,0.183 0.083,0.02 0.169,0.04 0.251,0.06 0.333,0.082 0.659,0.163 0.975,0.244 0.011,0.003 0.022,0.006 0.033,0.008 0.303,0.078 0.599,0.155 0.887,0.231 0.094,0.025 0.183,0.049 0.276,0.074 0.2,0.054 0.4,0.107 0.591,0.16 0.105,0.029 0.205,0.057 0.307,0.086 0.171,0.048 0.342,0.095 0.506,0.142 0.106,0.03 0.206,0.059 0.309,0.089 0.151,0.043 0.303,0.087 0.447,0.129 0.102,0.03 0.199,0.059 0.298,0.088 0.135,0.04 0.27,0.08 0.398,0.119 0.099,0.03 0.194,0.059 0.289,0.088 0.118,0.036 0.235,0.072 0.347,0.106 0.091,0.028 0.178,0.055 0.265,0.083 0.106,0.033 0.212,0.066 0.312,0.098 0.08,0.025 0.156,0.05 0.232,0.074 0.096,0.031 0.19,0.061 0.28,0.09 0.07,0.023 0.138,0.045 0.204,0.067 0.082,0.027 0.162,0.054 0.238,0.079 0.061,0.02 0.121,0.04 0.177,0.059 0.069,0.023 0.135,0.046 0.197,0.067 0.051,0.017 0.102,0.035 0.148,0.051 0.054,0.018 0.103,0.036 0.15,0.052 0.044,0.015 0.088,0.031 0.126,0.044 0.038,0.014 0.072,0.026 0.104,0.037 0.032,0.011 0.065,0.023 0.09,0.032 0.006,0.002 0.01,0.004 0.016,0.006 0.038,0.026 0.076,0.051 0.118,0.08 0.044,0.03 0.089,0.061 0.136,0.094 0.067,0.047 0.138,0.097 0.21,0.149 0.055,0.039 0.111,0.079 0.168,0.121 0.074,0.054 0.151,0.111 0.228,0.169 0.062,0.046 0.124,0.093 0.188,0.141 0.078,0.06 0.16,0.123 0.241,0.186 0.07,0.054 0.139,0.108 0.211,0.165 0.08,0.063 0.162,0.13 0.244,0.196 0.077,0.062 0.153,0.124 0.232,0.188 0.08,0.066 0.161,0.135 0.243,0.204 0.082,0.07 0.165,0.139 0.248,0.211 0.08,0.069 0.161,0.141 0.241,0.212 0.084,0.075 0.169,0.149 0.253,0.226 0.081,0.074 0.161,0.15 0.242,0.225 0.084,0.078 0.168,0.156 0.251,0.236 0.081,0.077 0.16,0.157 0.239,0.236 0.082,0.081 0.164,0.161 0.244,0.243 0.079,0.081 0.156,0.164 0.233,0.247 0.077,0.082 0.155,0.164 0.23,0.247 0.077,0.085 0.15,0.171 0.224,0.256 0.072,0.083 0.145,0.165 0.214,0.248 0.016,0.02 0.031,0.04 0.047,0.059 -5.549,-1.299 -18.152,-3.685 -36.052,-3.685 z m 37.614,6.902 c 0.002,0.015 0.004,0.029 0.006,0.045 0.024,0.182 0.045,0.38 0.063,0.592 0.003,0.031 0.005,0.064 0.008,0.096 0.018,0.219 0.033,0.451 0.045,0.697 0.001,0.029 0.003,0.059 0.004,0.088 0.012,0.259 0.021,0.529 0.028,0.813 0,0.008 0,0.016 0,0.024 0.007,0.292 0.01,0.598 0.011,0.913 0,0.015 0,0.029 0,0.044 10e-4,0.31 -0.001,0.631 -0.004,0.959 0,0.032 0,0.064 -0.001,0.096 -0.004,0.319 -0.01,0.646 -0.017,0.979 -0.001,0.046 -0.002,0.091 -0.003,0.137 -0.008,0.33 -0.017,0.665 -0.028,1.004 -0.001,0.047 -0.003,0.095 -0.005,0.142 -0.011,0.342 -0.024,0.688 -0.038,1.036 -0.002,0.042 -0.003,0.085 -0.005,0.128 -0.015,0.358 -0.03,0.719 -0.047,1.08 -10e-4,0.02 -0.002,0.04 -0.003,0.059 -0.017,0.373 -0.036,0.747 -0.055,1.119 0,0.009 -0.001,0.019 -0.001,0.028 -0.019,0.371 -0.039,0.74 -0.06,1.106 -0.002,0.031 -0.003,0.062 -0.005,0.093 -0.019,0.347 -0.039,0.69 -0.059,1.029 -0.003,0.056 -0.007,0.113 -0.01,0.169 -0.02,0.326 -0.039,0.647 -0.059,0.963 -0.003,0.052 -0.007,0.104 -0.01,0.155 -0.02,0.315 -0.039,0.624 -0.059,0.924 -0.004,0.062 -0.008,0.122 -0.012,0.183 -0.018,0.28 -0.036,0.555 -0.053,0.819 -0.006,0.09 -0.012,0.177 -0.018,0.266 -0.016,0.248 -0.033,0.495 -0.048,0.726 -0.031,0.473 -0.06,0.909 -0.087,1.327 -0.01,0.155 -0.02,0.308 -0.029,0.455 -0.008,0.119 -0.015,0.239 -0.023,0.353 -0.013,0.205 -0.025,0.4 -0.036,0.588 -0.003,0.053 -0.007,0.11 -0.01,0.162 -0.015,0.253 -0.028,0.487 -0.039,0.703 v 0 h -73.912 c -0.011,-0.216 -0.024,-0.451 -0.039,-0.703 -0.003,-0.051 -0.007,-0.109 -0.01,-0.162 -0.011,-0.187 -0.023,-0.382 -0.036,-0.588 -0.007,-0.114 -0.015,-0.234 -0.023,-0.353 -0.01,-0.155 -0.02,-0.316 -0.031,-0.48 -0.009,-0.146 -0.019,-0.293 -0.029,-0.446 -0.005,-0.068 -0.009,-0.141 -0.014,-0.21 -0.014,-0.213 -0.028,-0.421 -0.043,-0.646 -0.016,-0.241 -0.033,-0.497 -0.05,-0.756 -0.005,-0.075 -0.01,-0.148 -0.015,-0.224 -0.018,-0.277 -0.037,-0.564 -0.056,-0.858 -0.003,-0.048 -0.006,-0.095 -0.009,-0.143 -0.02,-0.312 -0.04,-0.632 -0.061,-0.958 -0.002,-0.039 -0.005,-0.077 -0.007,-0.116 -0.021,-0.332 -0.041,-0.671 -0.062,-1.015 -0.002,-0.035 -0.004,-0.071 -0.006,-0.106 -0.021,-0.353 -0.042,-0.711 -0.062,-1.073 -0.001,-0.019 -0.002,-0.038 -0.003,-0.057 -0.042,-0.758 -0.083,-1.53 -0.118,-2.3 0,-0.009 -10e-4,-0.018 -10e-4,-0.026 -0.017,-0.369 -0.033,-0.737 -0.048,-1.103 -0.001,-0.036 -0.003,-0.071 -0.004,-0.106 -0.014,-0.354 -0.027,-0.705 -0.038,-1.052 -0.001,-0.043 -0.003,-0.086 -0.004,-0.128 -0.011,-0.343 -0.02,-0.681 -0.028,-1.014 -0.001,-0.043 -0.002,-0.086 -0.003,-0.129 -0.007,-0.334 -0.013,-0.663 -0.017,-0.984 0,-0.031 -0.001,-0.062 -0.001,-0.093 -0.003,-0.33 -0.005,-0.653 -0.004,-0.964 0,-0.012 0,-0.023 0,-0.034 0.001,-0.314 0.005,-0.618 0.011,-0.91 0,-0.012 0,-0.025 10e-4,-0.037 0.006,-0.282 0.016,-0.549 0.028,-0.806 10e-4,-0.031 0.003,-0.063 0.004,-0.094 0.012,-0.244 0.027,-0.474 0.044,-0.691 0.003,-0.034 0.005,-0.069 0.008,-0.102 0.018,-0.21 0.039,-0.406 0.063,-0.587 0.002,-0.016 0.004,-0.032 0.007,-0.048 3.325,-0.886 17.03,-4.167 37.614,-4.167 20.55,0.002 34.283,3.284 37.613,4.169 z m -93.55,19.149 c -0.403,-1.15 -0.462,-2.935 -0.462,-5.714 0,-1.817 0.013,-4.283 0.028,-7.195 0.041,-7.904 0.096,-18.727 -0.028,-29.054 -0.164,-13.611 2.067,-14.403 9.145,-14.855 5.875,-0.378 8.869,1.09 9.802,1.668 l 0.009,0.039 0.487,0.31 c 0.155,0.099 3.801,2.49 3.801,8.583 l 0.001,17.567 c -1.558,1.104 -5.396,4.065 -6.705,7.304 l -0.056,0.017 -0.199,0.729 c -0.743,2.725 -0.327,10.139 0.206,18.146 0.134,2.019 0.249,3.762 0.253,4.52 l -0.008,0.025 v 0.014 c -0.738,0.49 -4.088,0.262 -6.329,0.11 -0.649,-0.044 -1.308,-0.087 -1.97,-0.125 -1.095,-0.064 -2.202,-0.113 -3.309,-0.113 -2.628,0 -3.661,-0.471 -4.171,-1.069 -0.032,-0.038 -0.062,-0.078 -0.091,-0.118 -0.124,-0.17 -0.214,-0.348 -0.291,-0.527 z m 111.65,5.481 c 0,0.236 -0.192,0.427 -0.427,0.427 H 159.227 c -0.236,0 -0.427,-0.192 -0.427,-0.427 v -1.481 c 1.336,0.592 2.924,0.712 4.444,0.712 1.07,0 2.159,0.05 3.241,0.114 0.623,0.037 1.244,0.077 1.857,0.119 0.509,0.035 0.993,0.067 1.466,0.096 0.008,0 0.016,0.001 0.024,0.001 0.962,0.06 1.854,0.103 2.657,0.103 1.291,0 2.365,-0.114 3.206,-0.435 0.1,-0.036 0.195,-0.075 0.288,-0.117 0.011,-0.005 0.023,-0.01 0.034,-0.016 0.473,-0.216 0.86,-0.503 1.128,-0.892 h 74.768 c 0.012,0.016 0.029,0.03 0.041,0.046 v 0 c 0.055,0.073 0.114,0.146 0.18,0.214 l 0.006,-0.006 c 0.037,0.039 0.066,0.083 0.106,0.12 0.021,0.02 0.047,0.035 0.068,0.054 0.05,0.045 0.1,0.09 0.154,0.132 l 0.005,-0.006 c 0.076,0.057 0.153,0.113 0.235,0.164 0.045,0.028 0.088,0.057 0.136,0.084 0.024,0.013 0.051,0.024 0.076,0.036 0.063,0.033 0.126,0.065 0.193,0.095 0.04,0.018 0.079,0.038 0.121,0.055 l 0.002,-0.005 c 0.046,0.019 0.091,0.038 0.138,0.056 v 0.001 c 0.008,0.003 0.017,0.006 0.026,0.009 0.057,0.021 0.115,0.041 0.173,0.06 0.041,0.013 0.085,0.024 0.127,0.036 0.024,0.007 0.048,0.014 0.072,0.02 l -0.001,0.003 c 0.032,0.009 0.065,0.016 0.097,0.025 0.101,0.026 0.206,0.05 0.313,0.072 v 0.001 c 0.081,0.016 0.163,0.031 0.248,0.045 0.031,0.005 0.059,0.012 0.09,0.017 0.102,0.016 0.209,0.027 0.315,0.04 0.019,0.002 0.036,0.005 0.055,0.007 v -10e-4 c 0.167,0.019 0.339,0.035 0.517,0.047 0.066,0.004 0.133,0.009 0.201,0.012 0.299,0.016 0.607,0.026 0.933,0.026 0.016,0 0.034,-10e-4 0.05,-10e-4 0.067,0 0.139,-0.003 0.207,-0.004 0.024,0 0.048,-10e-4 0.072,-10e-4 v 0 c 0.007,0 0.013,0 0.019,-0.001 0.011,0 0.023,0 0.034,-10e-4 0.262,-0.004 0.529,-0.01 0.807,-0.021 0.132,-0.005 0.269,-0.011 0.404,-0.018 0.286,-0.014 0.581,-0.029 0.883,-0.047 0.133,-0.008 0.266,-0.015 0.402,-0.024 0.411,-0.026 0.832,-0.054 1.269,-0.084 1.678,-0.115 3.413,-0.233 5.098,-0.233 1.519,0 3.108,-0.12 4.444,-0.712 z m 0.684,-47.442 c -0.124,10.326 -0.069,21.15 -0.028,29.054 0.015,2.912 0.028,5.378 0.028,7.195 0,2.78 -0.06,4.565 -0.463,5.715 l -0.111,0.26 c -0.075,0.177 -0.164,0.352 -0.285,0.52 -0.032,0.043 -0.064,0.086 -0.098,0.126 -0.51,0.598 -1.543,1.069 -4.17,1.069 -1.779,0 -3.561,0.121 -5.285,0.239 -0.286,0.02 -0.591,0.04 -0.905,0.061 -0.04,0.003 -0.082,0.005 -0.123,0.008 -0.113,0.007 -0.227,0.014 -0.343,0.021 -0.103,0.006 -0.207,0.012 -0.31,0.018 -0.055,0.003 -0.11,0.007 -0.165,0.01 -0.113,0.006 -0.226,0.012 -0.34,0.017 -0.049,0.002 -0.099,0.005 -0.148,0.008 -0.118,0.006 -0.237,0.01 -0.355,0.015 -0.042,0.002 -0.085,0.004 -0.127,0.005 -0.12,0.005 -0.239,0.008 -0.357,0.012 -0.04,0.001 -0.081,0.003 -0.121,0.004 -0.115,0.003 -0.228,0.005 -0.341,0.007 -0.042,10e-4 -0.084,0.002 -0.126,0.002 -0.11,10e-4 -0.216,10e-4 -0.322,10e-4 -0.042,0 -0.085,0 -0.126,0 -0.031,0 -0.06,-10e-4 -0.091,-0.002 L 256,282.607 v 0 c -0.028,-0.001 -0.057,-0.001 -0.085,-0.002 v -0.003 c -0.096,-0.003 -0.19,-0.008 -0.282,-0.014 v 0.005 c -0.007,0 -0.014,0 -0.021,-0.001 -0.023,-10e-4 -0.047,-0.002 -0.07,-0.004 v -0.006 l -0.253,-0.022 -10e-4,0.01 c -0.013,-10e-4 -0.027,-0.002 -0.04,-0.003 -0.018,-0.002 -0.035,-0.003 -0.052,-0.005 l 0.001,-0.011 -0.216,-0.027 -0.002,0.014 c -0.019,-0.003 -0.039,-0.005 -0.058,-0.007 -0.011,-0.001 -0.021,-0.003 -0.032,-0.005 l 0.003,-0.016 -0.181,-0.033 -0.004,0.018 c -0.024,-0.005 -0.047,-0.009 -0.07,-0.014 -0.004,-10e-4 -0.008,-0.002 -0.013,-0.003 l 0.004,-0.019 c -0.046,-0.01 -0.089,-0.022 -0.133,-0.033 l -0.005,0.019 c -0.025,-0.007 -0.049,-0.015 -0.072,-0.022 l 0.005,-0.017 -0.098,-0.034 -0.006,0.015 c -0.007,-0.003 -0.016,-0.006 -0.023,-0.009 -0.012,-0.005 -0.02,-0.011 -0.031,-0.016 l 0.004,-0.011 -0.077,-0.037 -0.003,0.005 c -0.006,-0.004 -0.012,-0.008 -0.018,-0.012 l 0.001,-0.003 -0.01,-0.006 c 0,-0.053 0.001,-0.113 0.003,-0.176 0.001,-0.036 0.001,-0.066 0.002,-0.104 0.003,-0.096 0.007,-0.206 0.012,-0.32 0.001,-0.028 0.002,-0.051 0.003,-0.08 0.006,-0.142 0.014,-0.297 0.023,-0.463 0,-0.007 10e-4,-0.012 10e-4,-0.019 0.047,-0.885 0.127,-2.079 0.213,-3.385 0.533,-8.007 0.949,-15.421 0.206,-18.146 l -0.199,-0.729 -0.056,-0.017 c -1.308,-3.238 -5.146,-6.199 -6.704,-7.304 V 233.99 c 0,-6.093 3.646,-8.484 3.793,-8.577 l 0.502,-0.308 0.012,-0.056 c 0.921,-0.574 3.892,-2.033 9.792,-1.657 7.081,0.451 9.312,1.243 9.148,14.854 z"
   id="path15" />
				</g>
				<path
   style="fill:#1a1a1a"
   d="m 324.213,288.922 c 0.228,-0.248 0.449,-0.503 0.669,-0.76 -3.98,-0.079 -7.961,-0.154 -11.941,-0.245 l -27.336,-0.352 c -18.224,-0.201 -36.448,-0.191 -54.672,-0.289 -18.224,0.105 -36.448,0.086 -54.673,0.294 l -1.621,0.021 c 0.538,0.663 1.106,1.299 1.7,1.91 18.198,0.207 36.396,0.188 54.593,0.293 18.224,-0.099 36.448,-0.089 54.672,-0.289 l 27.336,-0.352 c 3.758,-0.087 7.516,-0.157 11.273,-0.231 z"
   clip-path="url(#SVGID_00000161589511165819693610000018138227179845365918_)"
   id="path16" />
				<g
   clip-path="url(#SVGID_00000161589511165819693610000018138227179845365918_)"
   id="g26">
					<path
   style="fill:#f6fbfe"
   d="m 296.562,185.913 c 0,2.726 -2.21,4.937 -4.937,4.937 -2.726,0 -4.937,-2.21 -4.937,-4.937 0,-2.726 2.21,-4.937 4.937,-4.937 2.727,0 4.937,2.21 4.937,4.937 z"
   id="path17" />
					<g
   id="g25">
						<g
   id="g23">
							<path
   style="fill:#f7941d"
   d="m 296.724,165.146 c -0.52,-1.949 -2.281,-3.392 -4.394,-3.392 -2.113,0 -3.873,1.443 -4.394,3.392 -9.848,2.031 -17.253,10.75 -17.253,21.199 h 43.292 c 0.002,-10.45 -7.403,-19.169 -17.251,-21.199 z"
   id="path18" />
							<g
   id="g22">
								<g
   id="g21">
									<g
   id="g19">
										<path
   style="fill:#cc720e"
   d="m 301.254,166.64 c 4.38,3.961 7.142,9.678 7.142,16.049 h -37.398 c -0.202,1.189 -0.314,2.409 -0.314,3.656 h 43.292 c 10e-4,-8.77 -5.224,-16.304 -12.722,-19.705 z"
   id="path19" />
									</g>
									<g
   id="g20">
										<path
   style="fill:#d3b418"
   d="m 292.331,161.753 c -0.036,0 -0.069,0.008 -0.105,0.009 1.011,0.264 1.993,0.594 2.941,0.995 -0.777,-0.625 -1.759,-1.004 -2.836,-1.004 z"
   id="path20" />
									</g>
								</g>
							</g>
							<path
   style="fill:#1a1a1a"
   d="m 297.608,164.159 c -0.868,-2.127 -2.946,-3.559 -5.277,-3.559 -2.333,0 -4.41,1.432 -5.277,3.559 -10.193,2.417 -17.523,11.642 -17.523,22.186 v 1.154 h 45.601 v -1.154 c 0,-10.545 -7.33,-19.77 -17.524,-22.186 z m -25.736,21.031 c 0.521,-9.188 7.214,-17.042 16.299,-18.915 l 0.698,-0.144 0.184,-0.689 c 0.398,-1.493 1.746,-2.534 3.279,-2.534 1.531,0 2.879,1.043 3.279,2.534 l 0.184,0.689 0.698,0.144 c 9.085,1.873 15.778,9.727 16.299,18.915 z"
   id="path22" />
						</g>
						<g
   id="g24">
							<rect
   x="291.17599"
   y="134.12801"
   style="fill:#1a1a1a"
   width="2.309"
   height="27.625"
   id="rect23" />
						</g>
					</g>
				</g>
				<g
   clip-path="url(#SVGID_00000161589511165819693610000018138227179845365918_)"
   id="g27">
					<path
   style="fill:#f6fbfe"
   d="m 231.653,198.47 h -71.919 c -2.416,0 -4.375,-1.959 -4.375,-4.375 V 153.15 c 0,-2.416 1.959,-4.375 4.375,-4.375 h 71.919 c 2.416,0 4.375,1.959 4.375,4.375 v 40.945 c 0,2.417 -1.959,4.375 -4.375,4.375 z"
   id="path26" />
					<path
   style="fill:#1a1a1a"
   d="m 230.071,146.733 h -68.756 c -4.41,0 -7.999,3.589 -7.999,7.999 v 37.782 c 0,4.41 3.589,7.999 7.999,7.999 h 68.756 c 4.41,0 7.999,-3.589 7.999,-7.999 v -37.782 c 0,-4.41 -3.589,-7.999 -7.999,-7.999 z m 3.914,7.999 v 16.849 h -36.25 v -20.763 h 32.336 c 2.158,0 3.914,1.755 3.914,3.914 z m -72.67,-3.914 h 32.336 v 20.763 H 157.4 v -16.849 c 0,-2.159 1.757,-3.914 3.915,-3.914 z m -3.915,41.696 v -16.849 h 36.25 v 20.763 h -32.336 c -2.157,0 -3.914,-1.756 -3.914,-3.914 z m 72.671,3.914 h -32.336 v -20.763 h 36.25 v 16.849 c 0,2.158 -1.756,3.914 -3.914,3.914 z"
   id="path27" />
				</g>
			</g>
			
		<text
   xml:space="preserve"
   style="font-size:34.5519px;line-height:1.2;font-family:'Baskerville Old Face';-inkscape-font-specification:'Baskerville Old Face, Normal';text-align:center;letter-spacing:-1.07975px;text-anchor:middle;fill:#008080;fill-rule:evenodd;stroke:none;stroke-width:2.48342;stroke-linecap:square;stroke-linejoin:round;paint-order:fill markers stroke"
   x="243.72299"
   y="337.27347"
   id="text35"
   transform="scale(1.0267469,0.97394986)"><tspan
     id="tspan35"
     x="243.18312"
     y="337.27347"
     style="font-style:normal;font-variant:normal;font-weight:bold;font-stretch:normal;font-size:34.5519px;font-family:Arial;-inkscape-font-specification:'Arial, Bold';font-variant-ligatures:normal;font-variant-caps:normal;font-variant-numeric:normal;font-variant-east-asian:normal;stroke-width:2.48342">GELOCSV</tspan></text></g>
	</g>
</g>
</svg>
